PathFileType	4	(x/y/z)	A01_FAST_T0022.trc
DataRate	CameraRate	NumFrames	NumMarkers	Units	OrigDataRate	OrigDataStartFrame	OrigNumFrames
240	240	4	48	mm	240	225	299
Frame#	Time	TOP_HEAD			R_AC			L_AC			R_ASIS			L_ASIS			R_PSIS			L_PSIS			SACRAL			L_IC			R_IC			L_GT			R_GT			R_LAT_KNEE			R_MED_KNEE			L_MED_KNEE			L_LAT_KNEE			R_TOE			L_TOE			R_1ST_MET			L_1ST_MET			L_5TH_MET			R_5TH_MET			R_LAT_ANK			R_MED_ANK			L_MED_ANK			L_LAT_ANK			L_HEEL_SUP			R_HEEL_SUP			L_HEEL_LAT			R_HEEL_LAT			L_HEEL_MED			R_HEEL_MED			R_LL_PROX_POST			R_LL_PROX_ANT			R_LL_DIST_ANT			R_LL_DIST_POST			R_THIGH_PROX_POST			R_THIGH_PROX_ANT			R_THIGH_DIST_ANT			R_THIGH_DIST_POST			L_PROS_PROX_ANT			L_PROS_PROX_POST			L_PROS_DIST_POST			L_PROS_DIST_ANT			L_THIGH_PROX_ANT			L_THIGH_PROX_POST			L_THIGH_DIST_POST			L_THIGH_DIST_ANT			
		X1	Y1	Z1	X2	Y2	Z2	X3	Y3	Z3	X4	Y4	Z4	X5	Y5	Z5	X6	Y6	Z6	X7	Y7	Z7	X8	Y8	Z8	X9	Y9	Z9	X10	Y10	Z10	X11	Y11	Z11	X12	Y12	Z12	X13	Y13	Z13	X14	Y14	Z14	X15	Y15	Z15	X16	Y16	Z16	X17	Y17	Z17	X18	Y18	Z18	X19	Y19	Z19	X20	Y20	Z20	X21	Y21	Z21	X22	Y22	Z22	X23	Y23	Z23	X24	Y24	Z24	X25	Y25	Z25	X26	Y26	Z26	X27	Y27	Z27	X28	Y28	Z28	X29	Y29	Z29	X30	Y30	Z30	X31	Y31	Z31	X32	Y32	Z32	X33	Y33	Z33	X34	Y34	Z34	X35	Y35	Z35	X36	Y36	Z36	X37	Y37	Z37	X38	Y38	Z38	X39	Y39	Z39	X40	Y40	Z40	X41	Y41	Z41	X42	Y42	Z42	X43	Y43	Z43	X44	Y44	Z44	X45	Y45	Z45	X46	Y46	Z46	X47	Y47	Z47	X48	Y48	Z48	

225	0.93647	805.32	1762	288.46	577.81	1581.1	548.22	535.58	1567.8	88.15	550.98	1108.6	533.25	542.44	1057.6	180.9	329.35	1116.5	413.56	336.6	1110.7	282.31	317.63	1083.6	346.25	511.96	1171.5	138.99	523.67	1217.1	539.68	489.57	976.85	138.7	486.8	996.57	570.37	477.41	585.29	484.87	507.63	590.78	355.27	662.58	589.04	324.94	634.37	616.51	170.58	629.51	65.932	356.49	589.84	79.537	186.05	543.78	56.516	313.95	510.65	85.473	247.84	470.71	102.72	125.17	519.71	46.048	450.05	412.79	124.13	429.34	416.19	134.09	327.64	432.06	216.43	248.64	398.23	225.91	185.23	304.4	215.65	233.33	308.31	106.6	376.52	296.42	189.34	200.08	313.67	80.336	410.25	308.97	178.36	261.59	313.39	79.86	348.33	372.15	416.3	477.79	441.54	400.8	494.18	437.88	327.83	471.87	381.41	335.04	462.16	444.32	851.33	541.76	514.48	869.48	551.62	516.71	778.82	536.68	450.58	763.16	524.98	641.91	522.5	174.71	591.53	545.28	169.26	560.18	490.17	176.39	612.07	474.59	180.42	607.23	860.69	168.74	539.88	844.61	146.54	573.87	776.26	154.44	635.25	792.02	173.58
226	0.94065	811.47	1762.6	288.14	583.66	1582.4	547.93	541.26	1568.6	87.939	556.39	1109.3	533.44	548.68	1058.7	181.07	335.2	1117.6	412.91	342.73	1111.8	281.76	323.55	1084.7	345.6	518.32	1172.4	138.89	529.18	1218.4	539.65	496.09	977.9	138.61	491.6	997.41	570.23	478.76	586.22	484.71	509.13	591.51	355.1	669.51	590.93	325.68	641.48	617.47	171.12	629.62	65.885	356.48	610.21	79.673	186.85	544.02	56.514	313.96	530.53	83.669	248.14	490.91	99.721	125.17	519.93	46.104	449.99	413.31	125.06	429.27	416.92	134.93	327.59	448.69	212.66	248.33	414.96	221.22	184.69	321.09	208.54	232.15	308.91	108.1	376.39	314.02	181.94	198.94	314.14	81.759	410.21	326.48	171.4	260.51	313.7	81.265	348.33	373.05	417.47	477.5	442.38	401.81	494.02	438.62	328.85	471.74	382.24	336.15	461.96	448.05	852.67	541.4	518.29	870.18	551.4	519.77	779.47	536.39	453.5	764.45	524.63	651.3	523.72	175.4	600.36	545.25	169.57	570.36	489.4	176.54	622.58	475.09	180.92	613.97	862.12	169.09	546.74	845.81	146.64	580.9	777.57	154.74	642.13	793.52	174.11
227	0.94483	817.61	1763.2	287.83	589.49	1583.6	547.64	546.95	1569.4	87.727	561.81	1109.9	533.62	554.94	1059.6	181.24	341.07	1118.7	412.25	348.88	1112.8	281.18	329.47	1085.8	344.94	524.7	1173.3	138.77	534.69	1219.6	539.61	502.61	978.88	138.5	496.4	998.2	570.09	480.15	587.13	484.55	510.67	592.21	354.93	676.33	592.65	326.4	648.44	618.29	171.68	629.72	65.841	356.48	630.59	80.009	187.62	544.27	56.507	313.97	550.49	82.005	248.43	511.16	96.894	125.2	520.15	46.16	449.93	413.84	125.99	429.2	417.65	135.77	327.54	465.42	208.92	248.07	431.78	216.58	184.24	337.96	201.42	231.09	309.52	109.58	376.25	331.81	174.57	197.93	314.62	83.177	410.16	344.2	164.45	259.55	314.06	82.65	348.34	373.99	418.63	477.22	443.26	402.82	493.86	439.39	329.87	471.6	383.1	337.25	461.76	451.79	853.97	541.03	522.11	870.84	551.18	522.85	780.1	536.11	456.45	765.7	524.28	660.56	524.86	176.1	609.09	545.11	169.91	580.47	488.55	176.72	633	475.54	181.42	620.64	863.43	169.46	553.55	846.91	146.75	587.85	778.78	155.05	648.92	794.9	174.66
228	0.94901	823.73	1763.8	287.52	595.31	1584.8	547.35	552.65	1570.1	87.512	567.23	1110.5	533.77	561.21	1060.5	181.38	346.96	1119.7	411.57	355.03	1113.8	280.6	335.39	1086.8	344.26	531.09	1174.1	138.65	540.19	1220.8	539.55	509.13	979.79	138.38	501.21	998.95	569.94	481.6	588.03	484.4	512.26	592.89	354.76	683.05	594.2	327.12	655.26	618.99	172.25	629.82	65.802	356.47	650.96	80.552	188.35	544.51	56.495	313.98	570.53	80.495	248.74	531.46	94.25	125.27	520.38	46.214	449.86	414.37	126.92	429.13	418.39	136.6	327.49	482.24	205.24	247.88	448.69	212	183.88	355.03	194.31	230.17	310.14	111.05	376.12	349.8	167.23	197.06	315.1	84.588	410.11	362.12	157.53	258.71	314.48	84.013	348.36	374.97	419.78	476.94	444.18	403.82	493.7	440.2	330.88	471.46	383.99	338.34	461.56	455.54	855.22	540.67	525.94	871.47	550.95	525.94	780.69	535.84	459.43	766.92	523.94	669.7	525.92	176.79	617.72	544.88	170.29	590.5	487.64	176.95	643.31	475.94	181.93	627.25	864.63	169.85	560.31	847.93	146.85	594.72	779.89	155.37	655.64	796.17	175.22
